<svg xmlns="http://www.w3.org/2000/svg" version="1.1" xmlns:xlink="http://www.w3.org/1999/xlink" xmlns:svgjs="http://svgjs.com/svgjs" width="1440" height="560" preserveAspectRatio="none" viewBox="0 0 1440 560"><g mask="url(&quot;#SvgjsMask1006&quot;)" fill="none"><rect width="1440" height="560" x="0" y="0" fill="#0e2a47"></rect><g transform="translate(0, 0)" stroke-linecap="round"><path d="M260 124.9 L260 435.11" stroke-width="15" stroke="rgba(22, 74, 147, 1)"></path><path d="M280 234.13 L280 325.87" stroke-width="15" stroke="#3a7cc3"></path><path d="M300 185.03 L300 374.97" stroke-width="15" stroke="rgba(22, 74, 147, 1)"></path><path d="M320 224.21 L320 335.79" stroke-width="15" stroke="#3a7cc3"></path><path d="M340 248.8 L340 311.2" stroke-width="15" stroke="#3a7cc3"></path><path d="M360 137 L360 423" stroke-width="15" stroke="rgba(22, 74, 147, 1)"></path><path d="M380 189.32 L380 370.68" stroke-width="15" stroke="rgba(22, 74, 147, 1)"></path><path d="M400 137.84 L400 422.16" stroke-width="15" stroke="#3a7cc3"></path><path d="M420 116.8 L420 443.2" stroke-width="15" stroke="#3a7cc3"></path><path d="M440 209.37 L440 350.63" stroke-width="15" stroke="rgba(22, 74, 147, 1)"></path><path d="M460 238.09 L460 321.9" stroke-width="15" stroke="#3a7cc3"></path><path d="M480 193.88 L480 366.12" stroke-width="15" stroke="rgba(22, 74, 147, 1)"></path><path d="M500 260.85 L500 299.15" stroke-width="15" stroke="#3a7cc3"></path><path d="M520 187.2 L520 372.8" stroke-width="15" stroke="#3a7cc3"></path><path d="M540 178.72 L540 381.28" stroke-width="15" stroke="#3a7cc3"></path><path d="M560 171.65 L560 388.35" stroke-width="15" stroke="rgba(22, 74, 147, 1)"></path><path d="M580 258.34 L580 301.66" stroke-width="15" stroke="rgba(22, 74, 147, 1)"></path><path d="M600 147.97 L600 412.02" stroke-width="15" stroke="rgba(22, 74, 147, 1)"></path><path d="M620 108.25 L620 451.75" stroke-width="15" stroke="#3a7cc3"></path><path d="M640 184.95 L640 375.05" stroke-width="15" stroke="#3a7cc3"></path><path d="M660 243.32 L660 316.68" stroke-width="15" stroke="rgba(22, 74, 147, 1)"></path><path d="M680 177.67 L680 382.33" stroke-width="15" stroke="rgba(22, 74, 147, 1)"></path><path d="M700 120.81 L700 439.19" stroke-width="15" stroke="rgba(22, 74, 147, 1)"></path><path d="M720 136.8 L720 423.2" stroke-width="15" stroke="rgba(22, 74, 147, 1)"></path><path d="M740 110.3 L740 449.7" stroke-width="15" stroke="rgba(22, 74, 147, 1)"></path><path d="M760 107.44 L760 452.56" stroke-width="15" stroke="rgba(22, 74, 147, 1)"></path><path d="M780 184 L780 376" stroke-width="15" stroke="rgba(22, 74, 147, 1)"></path><path d="M800 152.01 L800 407.99" stroke-width="15" stroke="#3a7cc3"></path><path d="M820 111.14 L820 448.86" stroke-width="15" stroke="#3a7cc3"></path><path d="M840 205.74 L840 354.26" stroke-width="15" stroke="#3a7cc3"></path><path d="M860 182.49 L860 377.51" stroke-width="15" stroke="#3a7cc3"></path><path d="M880 233.53 L880 326.47" stroke-width="15" stroke="rgba(22, 74, 147, 1)"></path><path d="M900 233.28 L900 326.72" stroke-width="15" stroke="#3a7cc3"></path><path d="M920 153.83 L920 406.17" stroke-width="15" stroke="#3a7cc3"></path><path d="M940 254.99 L940 305.01" stroke-width="15" stroke="rgba(22, 74, 147, 1)"></path><path d="M960 109.53 L960 450.47" stroke-width="15" stroke="#3a7cc3"></path><path d="M980 197.26 L980 362.74" stroke-width="15" stroke="rgba(22, 74, 147, 1)"></path><path d="M1000 234.06 L1000 325.94" stroke-width="15" stroke="rgba(22, 74, 147, 1)"></path><path d="M1020 126.24 L1020 433.76" stroke-width="15" stroke="rgba(22, 74, 147, 1)"></path><path d="M1040 112.25 L1040 447.75" stroke-width="15" stroke="#3a7cc3"></path><path d="M1060 232.08 L1060 327.92" stroke-width="15" stroke="#3a7cc3"></path><path d="M1080 179.75 L1080 380.25" stroke-width="15" stroke="rgba(22, 74, 147, 1)"></path><path d="M1100 187.88 L1100 372.13" stroke-width="15" stroke="#3a7cc3"></path><path d="M1120 196.61 L1120 363.39" stroke-width="15" stroke="rgba(22, 74, 147, 1)"></path><path d="M1140 136.06 L1140 423.94" stroke-width="15" stroke="rgba(22, 74, 147, 1)"></path><path d="M1160 199.29 L1160 360.71" stroke-width="15" stroke="#3a7cc3"></path><path d="M1180 244.53 L1180 315.48" stroke-width="15" stroke="rgba(22, 74, 147, 1)"></path></g></g><defs><mask id="SvgjsMask1006"><rect width="1440" height="560" fill="#ffffff"></rect></mask></defs></svg>